<?xml version="1.0" encoding="UTF-8"?>
<svg viewBox="0 0 113 55" xmlns="http://www.w3.org/2000/svg">
<style type="text/css">.st0{fill-rule:evenodd;clip-rule:evenodd;fill:none;}
    .st1{filter:url(#Adobe_OpacityMaskFilter);}
    .st2{fill-rule:evenodd;clip-rule:evenodd;fill:#FFFFFF;}
    .st3{mask:url(#mask-2_1_);fill:#FF5A5F;}</style>
<g transform="translate(-966 -73)">
<g transform="translate(732 30)">
<g transform="translate(0 43)">
<g transform="translate(234)">
<rect x=".7" width="111.8" height="55" className="st0"/>
<mask x="0.5" y="9.9" width="112.6" height="34.8" maskUnits="userSpaceOnUse">
<g className="st1">
<rect x=".7" width="111.8" height="55" className="st2"/>
</g>
</mask>
<path d="m59.8 18.6c0 1.3-1 2.3-2.3 2.3s-2.3-1-2.3-2.3 1-2.3 2.3-2.3c1.3 0.1 2.3 1.1 2.3 2.3zm-9.4 4.6v0.6s-1.1-1.4-3.4-1.4c-3.8 0-6.8 2.9-6.8 6.9s3 6.9 6.8 6.9c2.4 0 3.4-1.4 3.4-1.4v0.6c0 0.3 0.2 0.5 0.5 0.5h2.8v-13.2h-2.8c-0.3 0-0.5 0.3-0.5 0.5zm0 8.4c-0.5 0.8-1.6 1.4-2.8 1.4-2.3 0-4-1.4-4-3.8s1.7-3.8 4-3.8c1.2 0 2.4 0.7 2.8 1.4v4.8zm5.4 4.2h3.4v-13.1h-3.4v13.1zm50.5-13.4c-2.3 0-3.4 1.4-3.4 1.4v-7.3h-3.4v19.4h2.8c0.3 0 0.5-0.2 0.5-0.5v-0.6s1.1 1.4 3.4 1.4c3.8 0 6.8-2.9 6.8-6.9s-2.9-6.9-6.7-6.9zm-0.6 10.6c-1.3 0-2.3-0.7-2.8-1.4v-4.7c0.5-0.7 1.7-1.4 2.8-1.4 2.3 0 4 1.4 4 3.8s-1.7 3.7-4 3.7zm-8-5v7.8h-3.4v-7.4c0-2.2-0.7-3-2.6-3-1 0-2.1 0.5-2.7 1.3v9.1h-3.4v-13.1h2.7c0.3 0 0.5 0.2 0.5 0.5v0.6c1-1 2.3-1.4 3.6-1.4 1.5 0 2.7 0.4 3.7 1.3 1.2 0.9 1.6 2.2 1.6 4.3zm-20.3-5.6c-2.3 0-3.4 1.4-3.4 1.4v-7.3h-3.4v19.4h2.8c0.3 0 0.5-0.2 0.5-0.5v-0.6s1.1 1.4 3.4 1.4c3.8 0 6.8-2.9 6.8-6.9 0.2-4-2.8-6.9-6.7-6.9zm-0.5 10.6c-1.3 0-2.3-0.7-2.8-1.4v-4.7c0.5-0.7 1.7-1.4 2.8-1.4 2.3 0 4 1.4 4 3.8s-1.8 3.7-4 3.7zm-9.2-10.6c1 0 1.5 0.2 1.5 0.2v3.1s-2.8-0.9-4.6 1v9.2h-3.4v-13.2h2.8c0.3 0 0.5 0.2 0.5 0.5v0.6c0.8-0.8 2.2-1.4 3.2-1.4zm-35 12.2c-0.2-0.4-0.4-0.9-0.5-1.3-0.3-0.6-0.6-1.2-0.8-1.8-2.4-5.2-5-10.5-7.8-15.7l-0.1-0.2c-0.3-0.5-0.6-1.1-0.8-1.6-0.4-0.6-0.7-1.3-1.3-1.9-1.1-1.4-2.7-2.2-4.5-2.2s-3.3 0.8-4.5 2.1c-0.5 0.6-0.9 1.3-1.3 1.9-0.3 0.6-0.6 1.1-0.8 1.6l-0.1 0.2c-2.8 5.3-5.4 10.6-7.8 15.8v0.1c-0.2 0.6-0.5 1.1-0.8 1.8-0.2 0.4-0.4 0.8-0.5 1.3-0.5 1.3-0.6 2.5-0.4 3.8 0.4 2.6 2.1 4.8 4.6 5.8 0.7 0.2 1.7 0.4 2.7 0.4 0.3 0 0.6 0 0.9-0.1 1.2-0.1 2.4-0.5 3.5-1.2 1.4-0.8 2.8-2 4.4-3.6 1.5 1.7 3 2.8 4.4 3.6 1.2 0.7 2.4 1 3.5 1.2 0.3 0 0.6 0.1 0.9 0.1 1 0 2-0.2 2.8-0.6 2.5-1 4.2-3.2 4.6-5.8 0.3-1.2 0.1-2.4-0.3-3.7zm-15.9 1.8c-1.9-2.4-3.1-4.6-3.6-6.5-0.2-0.8-0.2-1.5-0.1-2.1s0.3-1 0.6-1.5c0.7-0.9 1.8-1.5 3.1-1.5s2.5 0.6 3.1 1.5c0.3 0.4 0.5 0.9 0.6 1.5s0.1 1.4-0.1 2.1c-0.5 1.9-1.7 4.1-3.6 6.5zm14 1.7c-0.2 1.8-1.5 3.4-3.2 4.1-0.8 0.3-1.8 0.5-2.7 0.3-0.9-0.1-1.8-0.4-2.7-0.9-1.3-0.7-2.5-1.8-4-3.4 2.3-2.8 3.7-5.4 4.3-7.7 0.2-1.1 0.3-2.1 0.2-3s-0.5-1.7-0.9-2.4c-1.1-1.6-2.9-2.5-5-2.5-2 0-3.9 0.9-5 2.5-0.5 0.7-0.8 1.5-0.9 2.4s-0.1 1.9 0.2 3c0.5 2.3 2 4.9 4.3 7.7-1.4 1.6-2.7 2.7-4 3.4-0.9 0.5-1.8 0.8-2.7 0.9-1 0.1-1.9 0-2.7-0.3-1.7-0.7-3-2.3-3.2-4.1-0.1-0.9 0-1.7 0.3-2.7 0.1-0.3 0.3-0.7 0.5-1.1 0.2-0.6 0.5-1.1 0.8-1.7v-0.1c2.4-5.2 5-10.5 7.7-15.6l0.1-0.2c0.3-0.5 0.6-1.1 0.8-1.6 0.3-0.6 0.6-1.1 1-1.5 0.7-0.8 1.7-1.3 2.8-1.3s2.1 0.5 2.8 1.3c0.4 0.5 0.7 1 1 1.5s0.6 1.1 0.8 1.6l0.1 0.2c2.7 5.2 5.3 10.5 7.7 15.7 0.3 0.6 0.5 1.2 0.8 1.7 0.2 0.4 0.4 0.8 0.5 1.1 0.4 0.9 0.5 1.8 0.3 2.7z" fill="#1D4354" mask="url(#mask-2_1_)" className="st3"/>
</g>
</g>
</g>
</g>
</svg>
