<?xml version="1.0" encoding="UTF-8"?>
<svg viewBox="0 0 75 54" xmlns="http://www.w3.org/2000/svg">
<style type="text/css">.st0{fill-rule:evenodd;clip-rule:evenodd;fill:none;}
    .st1{fill-rule:evenodd;clip-rule:evenodd;}
    .st2{fill-rule:evenodd;clip-rule:evenodd;fill:#EA2227;}
    .st3{filter:url(#Adobe_OpacityMaskFilter);}
    .st4{fill-rule:evenodd;clip-rule:evenodd;fill:#FFFFFF;}
    .st5{mask:url(#mask-2_1_);fill-rule:evenodd;clip-rule:evenodd;fill:#EA2227;}</style>
<g transform="translate(-1599 -73)">
<g transform="translate(732 30)">
<g transform="translate(0 43)">
<g transform="translate(867)">
<rect x=".3" width="73.5" height="54" className="st0"/>
<path d="m72.4 20.8c-1.3 0-1.8 0.9-1.8 1.7s0.5 1.7 1.8 1.7c1.1 0 1.8-0.8 1.8-1.7-0.1-0.9-0.7-1.7-1.8-1.7zm0 0.4c0.8 0 1.3 0.5 1.3 1.3s-0.5 1.3-1.3 1.3-1.4-0.6-1.4-1.3c0-0.8 0.6-1.3 1.4-1.3zm-0.4 1.5h0.3l0.4 0.7h0.5l-0.5-0.8c0.3 0 0.5-0.2 0.5-0.5 0-0.4-0.2-0.6-0.6-0.6h-1.1v1.9h0.5v-0.7zm0.4-0.8c0.2 0 0.4 0 0.4 0.2s-0.1 0.2-0.3 0.2h-0.5v-0.5h0.4z" fill="#1D4354" className="st1"/>
<polygon points="15.8 24.7 17.9 24.7 17.9 34.2 15.9 34.2" fill="#1D4354" className="st1"/>
<polygon points="15.8 20.9 17.9 20.9 17.9 23.9 15.8 23.9" fill="#1D4354" className="st1"/>
<polygon points="63.2 20.8 65.3 20.8 65.3 34.1 63.3 34.1" fill="#1D4354" className="st1"/>
<polygon points="66.7 20.8 68.8 20.8 68.8 34.1 66.8 34.1" fill="#1D4354" className="st1"/>
<path d="m0.1 24.7h11.4c1.9 0 2.5 1.5 2.4 2.3 0 0.9-0.4 1.7-0.9 1.9 0.9 0.4 1.6 1.5 1.5 2.5-0.1 2.5-2.6 2.7-3.6 2.7h-10.8v-9.4zm10.6 8c0.8 0 1.5-0.6 1.5-1.4s-0.7-1.5-1.5-1.5h-8.6v2.8l8.6 0.1zm-0.3-4.2c0.7 0 1.3-0.5 1.3-1.2s-0.6-1.2-1.3-1.2h-8.3v2.3l8.3 0.1z" fill="#1D4354" className="st1"/>
<path d="m52.2 24.7c-0.8 0-2.5 0.4-2.6 2 0 1.4 0.8 2.1 1.2 2.2-0.6 0.3-1.2 1.4-1.2 2.3 0 1 0.4 2.9 3.6 2.9h8.8v-1.4h-8.5c-0.8 0-1.5-0.6-1.5-1.4s0.7-1.5 1.5-1.5h8.1v-1.4h-8.3c-0.7 0-1.3-0.5-1.3-1.2s0.6-1.2 1.3-1.2h8.7v-1.4l-9.8 0.1z" fill="#1D4354" className="st1"/>
<path d="m45.9 27.6h2.1c0-2.3-1.1-3-4-3h-5.7c-1.3 0-3.5 0.6-3.5 2.5s0.8 2.7 3.1 2.7h6.8c0.8 0 1.6 0.5 1.6 1.4s-0.5 1.5-1.9 1.5h-5.4c-0.7 0-2.1-0.1-2.1-1.5h-2.1c0 1.2 0.2 3 3.4 3h6.7c1.3 0 3.5-0.6 3.5-3s-2-2.7-3.2-2.7h-6.8c-1.1 0-1.5-0.7-1.5-1.2s0.4-1.2 1.5-1.2h5.9c1 0 1.6 0.4 1.6 1.5" fill="#1D4354" className="st1"/>
<path d="m31.2 27.6h2.1c0-2.3-1.1-3-4-3h-5.7c-1.3 0-3.5 0.6-3.5 2.5s0.8 2.7 3.1 2.7h6.8c0.8 0 1.6 0.5 1.6 1.4s-0.5 1.5-1.9 1.5h-5.4c-0.7 0-2.1-0.1-2.1-1.5h-2.2c0 1.2 0.2 3 3.4 3h6.7c1.3 0 3.5-0.6 3.5-3s-2-2.7-3.2-2.7h-6.8c-1.1 0-1.5-0.7-1.5-1.2s0.4-1.2 1.5-1.2h5.9c1.1 0 1.7 0.4 1.7 1.5" fill="#1D4354" className="st1"/>
<path d="m62.7 51.1c3.2 0 1.9-2.9 1.3-3.9-0.9-1.4-5.3-9.2-5.3-9.2h-47.8s-4.4 7.7-5.3 9.2c-0.6 1-1.8 3.8 1.4 3.8l55.7 0.1z" fill="#1D4354" className="st2"/>
<g transform="translate(19.766 .98182)">
<mask x="0.2" y="0" width="29" height="20" maskUnits="userSpaceOnUse">
<g className="st3">
<polygon points="0.2 0 29.2 0 29.2 20 0.2 20" className="st4"/>
</g>
</mask>
<path d="m0.2 20h29s-7.3-13-9-15.9c-1.6-2.7-2.5-4-5.6-4-3.1-0.1-3.9 1.2-5.6 4-1.5 2.7-8.8 15.9-8.8 15.9" fill="#1D4354" mask="url(#mask-2_1_)" className="st5"/>
</g>
</g>
</g>
</g>
</g>
</svg>
