<?xml version="1.0" encoding="UTF-8"?>
<svg version="1.1" viewBox="0 0 117 40" xmlns="http://www.w3.org/2000/svg" xmlnsXlink="http://www.w3.org/1999/xlink">
<title>logo-clearlyrated</title>
<desc>Created with Sketch.</desc>
<g fill="none" fillRule="evenodd">
<g transform="translate(-1567 -2788)" fillRule="nonzero">
<g transform="translate(0 2140)">
<g transform="translate(730 583)">
<g transform="translate(186 65)">
<g transform="translate(651)" fill="#1D4354">
<g id="b" transform="translate(0 17.959)">
<path id="Path" d="m8.3673 7.6327c-0.44898-0.40816-0.89796-0.73469-1.3878-0.93878-0.44898-0.20408-0.97959-0.32653-1.6327-0.32653-0.4898 0-0.93878 0.12245-1.3878 0.32653-0.40816 0.20408-0.77551 0.53061-1.102 0.93878-0.32653 0.40816-0.57143 0.93878-0.73469 1.551s-0.2449 1.3061-0.2449 2.0816c0 1.551 0.32653 2.7755 0.93878 3.7143 0.61224 0.89796 1.4694 1.3878 2.6122 1.3878 0.61224 0 1.1429-0.12245 1.5918-0.36735 0.44898-0.2449 0.89796-0.57143 1.3061-0.97959l1.0612 1.1429c-0.53061 0.53061-1.102 0.93878-1.7551 1.2653-0.65306 0.28571-1.3878 0.44898-2.2857 0.44898-0.69388 0-1.3469-0.12245-1.9592-0.40816-0.65306-0.2449-1.1837-0.65306-1.6735-1.1837-0.4898-0.53061-0.89796-1.1837-1.1837-2s-0.44898-1.7551-0.44898-2.8571c0-1.1429 0.16327-2.1633 0.4898-2.9796 0.32653-0.81633 0.73469-1.5102 1.2245-2.0408 0.4898-0.53061 1.102-0.93878 1.7143-1.1837 0.65306-0.2449 1.3061-0.36735 1.9592-0.36735 0.85714 0 1.5918 0.12245 2.2449 0.40816 0.65306 0.28571 1.2245 0.61224 1.7143 1.0612l-1.0612 1.3061z"/>
<polygon id="Path" points="11.265 17.633 11.265 1.2653 13.061 0.2449 13.061 17.633"/>
<path id="Shape" d="m25.184 11.551c0 0.16327-0.040816 0.28571-0.040816 0.44898h-8.3265c0.081633 1.3469 0.40816 2.449 1.0204 3.2245s1.4286 1.1837 2.449 1.1837c0.73469 0 1.3469-0.12245 1.8367-0.32653 0.4898-0.20408 1.0204-0.4898 1.5918-0.89796l0.81633 1.3061c-0.36735 0.2449-0.73469 0.44898-1.0612 0.61224-0.32653 0.16327-0.69388 0.32653-1.0204 0.44898-0.36735 0.12245-0.73469 0.20408-1.102 0.28571-0.36735 0.081633-0.81633 0.081633-1.3061 0.081633-0.57143 0-1.1429-0.12245-1.7551-0.32653-0.61224-0.20408-1.1429-0.57143-1.6327-1.102-0.4898-0.53061-0.89796-1.1837-1.2245-2.0408-0.32653-0.85714-0.4898-1.8776-0.4898-3.102 0-1.0204 0.12245-1.9184 0.40816-2.6939 0.2449-0.77551 0.61224-1.4694 1.102-2.0408 0.44898-0.57143 1.0204-0.97959 1.6327-1.3061 0.61224-0.28571 1.3061-0.44898 2.0408-0.44898 0.81633 0 1.5102 0.16327 2.1633 0.44898 0.61224 0.28571 1.1429 0.73469 1.5918 1.2653 0.40816 0.53061 0.73469 1.1837 0.97959 1.9592 0.20408 0.77551 0.32653 1.5918 0.32653 2.449v0.57143zm-2.5714-4.0408c-0.53061-0.77551-1.3469-1.1429-2.449-1.1429-0.93878 0-1.7143 0.32653-2.2857 1.0204s-0.93878 1.7143-1.0612 3.1429h6.7347c-0.081633-1.2245-0.36735-2.2449-0.93878-3.0204z"/>
<path id="Shape" d="m34.122 17.633v-1.5102c-0.44898 0.4898-0.97959 0.89796-1.5918 1.2653s-1.3878 0.53061-2.2857 0.53061c-0.4898 0-0.97959-0.081633-1.4694-0.20408s-0.89796-0.36735-1.3061-0.65306c-0.36735-0.32653-0.69388-0.73469-0.89796-1.2245-0.2449-0.4898-0.32653-1.1429-0.32653-1.9184 0-0.69388 0.12245-1.3061 0.40816-1.7959s0.61224-0.93878 1.0612-1.2653c0.44898-0.32653 0.93878-0.57143 1.5102-0.73469 0.57143-0.16327 1.1837-0.2449 1.7959-0.2449 0.65306 0 1.2245 0.081633 1.7551 0.20408 0.53061 0.12245 0.97959 0.28571 1.3469 0.53061v-1.4694c0-1.8367-0.89796-2.7347-2.7347-2.7347-0.65306 0-1.2653 0.081633-1.8367 0.2449-0.53061 0.16327-1.0612 0.40816-1.5918 0.69388l-0.61224-1.4694c0.57143-0.28571 1.1837-0.57143 1.9184-0.73469 0.73469-0.20408 1.4694-0.28571 2.2857-0.28571 1.3469 0 2.4082 0.32653 3.2245 0.93878 0.77551 0.61224 1.1837 1.6735 1.1837 3.102v8.7347h-1.8367zm0-5.5918c-0.40816-0.20408-0.85714-0.40816-1.3469-0.53061s-1.102-0.20408-1.8776-0.20408c-0.93878 0-1.6327 0.20408-2.1633 0.61224-0.53061 0.40816-0.77551 1.0204-0.77551 1.8367 0 0.93878 0.2449 1.6327 0.69388 2.0408 0.44898 0.40816 1.102 0.61224 1.8367 0.61224 0.81633 0 1.5102-0.16327 2.1224-0.53061 0.61224-0.36735 1.102-0.81633 1.4694-1.3469v-2.4898h0.040816z"/>
<path id="Path" d="m44.776 6.9796c-0.2449-0.12245-0.53061-0.2449-0.81633-0.32653-0.28571-0.081633-0.65306-0.12245-1.0612-0.12245-0.85714 0-1.551 0.32653-2 1.0204-0.44898 0.65306-0.69388 1.5918-0.69388 2.7755v7.3469h-1.8367v-12.571h1.7959v1.551c0.28571-0.4898 0.69388-0.93878 1.2653-1.3061 0.57143-0.36735 1.1837-0.53061 1.8367-0.53061 0.44898 0 0.85714 0.040816 1.1429 0.081633 0.32653 0.040816 0.57143 0.12245 0.81633 0.2449l-0.44898 1.8367z"/>
<polygon id="Path" points="46.776 17.633 46.776 1.2653 48.571 0.2449 48.571 17.633"/>
<polygon id="Path" points="54.694 22.041 52.898 22.041 54.612 17.469 50.163 5.102 52.041 5.102 55.102 14.204 55.551 15.51 56 14.245 59.061 5.1429 60.939 5.1429"/>
<path id="Path" d="m70.041 7.7143c-0.28571-0.12245-0.53061-0.2449-0.81633-0.32653-0.28571-0.081633-0.65306-0.12245-1.0612-0.12245-0.77551 0-1.3878 0.28571-1.7959 0.81633-0.44898 0.53061-0.65306 1.3469-0.65306 2.4082v7.1429h-2.4898v-12.531h2.4898v1.1837c0.28571-0.40816 0.69388-0.77551 1.1837-1.0204 0.4898-0.28571 1.0612-0.40816 1.6735-0.40816 0.4898 0 0.93878 0.040816 1.2653 0.12245 0.32653 0.081633 0.61224 0.20408 0.85714 0.40816l-0.65306 2.3265z"/>
<path id="Shape" d="m78.082 17.633v-1.2245c-0.44898 0.44898-0.93878 0.77551-1.5102 1.0612-0.57143 0.28571-1.2245 0.44898-1.9184 0.44898-0.4898 0-1.0204-0.081633-1.551-0.2449-0.53061-0.16327-0.97959-0.40816-1.3878-0.73469s-0.73469-0.77551-1.0204-1.3061c-0.2449-0.53061-0.40816-1.1837-0.40816-1.9592 0-0.69388 0.12245-1.3061 0.36735-1.7959 0.2449-0.4898 0.61224-0.93878 1.0612-1.2653s0.97959-0.57143 1.5918-0.73469c0.61224-0.16327 1.2653-0.2449 1.9592-0.2449 1.1429 0 2.0816 0.16327 2.7755 0.4898v-0.93878c0-0.69388-0.20408-1.2245-0.61224-1.5918-0.40816-0.36735-0.97959-0.53061-1.7551-0.53061-0.65306 0-1.2245 0.081633-1.7551 0.20408-0.53061 0.12245-1.0204 0.32653-1.5102 0.61224l-0.93878-1.8776c0.61224-0.36735 1.2653-0.65306 1.9184-0.81633 0.69388-0.20408 1.4694-0.28571 2.3673-0.28571 1.3878 0 2.5306 0.32653 3.3878 1.0204 0.85714 0.69388 1.3061 1.7551 1.3061 3.1429v8.5714h-2.3673zm0-5.3469c-0.32653-0.16327-0.73469-0.32653-1.1837-0.40816-0.44898-0.081633-1.0204-0.12245-1.6735-0.12245-0.77551 0-1.4286 0.16327-1.8776 0.4898-0.44898 0.32653-0.69388 0.77551-0.69388 1.3469 0 0.61224 0.20408 1.102 0.61224 1.5102 0.40816 0.36735 1.0204 0.57143 1.7959 0.57143 0.65306 0 1.2653-0.16327 1.7959-0.4898 0.53061-0.32653 0.93878-0.69388 1.2245-1.102v-1.7959z"/>
<path id="Path" d="m88.571 17.306c-0.28571 0.16327-0.65306 0.32653-1.0612 0.40816-0.40816 0.12245-0.85714 0.16327-1.3469 0.16327-0.85714 0-1.551-0.28571-2.0816-0.81633-0.4898-0.53061-0.73469-1.3878-0.73469-2.4898v-7.2245h-1.7959v-2.2449h1.7959v-3.5918l2.4082-1.3061v4.8571h3.102v2.2857h-3.102v6.7755c0 0.57143 0.081633 0.97959 0.28571 1.1837 0.20408 0.20408 0.53061 0.32653 0.97959 0.32653 0.32653 0 0.65306-0.040816 0.97959-0.16327 0.32653-0.12245 0.61224-0.20408 0.81633-0.32653l-0.2449 2.1633z"/>
<path id="Shape" d="m100.45 11.755c0 0.20408-0.040817 0.36735-0.040817 0.4898h-8.2857c0.081633 0.61224 0.20408 1.102 0.36735 1.551 0.20408 0.44898 0.44898 0.77551 0.73469 1.0612 0.28571 0.28571 0.61224 0.4898 0.93878 0.61224 0.36735 0.12245 0.73469 0.20408 1.102 0.20408 0.53061 0 1.0204-0.081633 1.4286-0.2449 0.44898-0.16327 0.85714-0.40816 1.2653-0.73469l1.4694 1.5918c-0.57143 0.53061-1.1837 0.93878-1.8776 1.2245-0.69388 0.28571-1.5102 0.44898-2.449 0.44898-0.73469 0-1.4286-0.12245-2.0816-0.44898-0.65306-0.28571-1.2245-0.69388-1.7143-1.2653-0.4898-0.57143-0.89796-1.2245-1.1837-2.0408-0.28571-0.81633-0.44898-1.7143-0.44898-2.7755s0.12245-2 0.40816-2.8163c0.28571-0.81633 0.65306-1.5102 1.102-2.0408 0.4898-0.53061 1.0612-0.97959 1.7143-1.2653 0.69388-0.28571 1.4286-0.44898 2.2449-0.44898 0.89796 0 1.6735 0.16327 2.3265 0.4898 0.65306 0.32653 1.2245 0.77551 1.6327 1.3469 0.44898 0.57143 0.77551 1.2245 0.97959 2 0.20408 0.77551 0.32653 1.551 0.32653 2.4082 0.040817 0.2449 0.040817 0.44898 0.040817 0.65306zm-2.6939-2.7347c-0.12245-0.36735-0.28571-0.73469-0.53061-1.0204s-0.53061-0.53061-0.89796-0.69388c-0.36735-0.16327-0.77551-0.2449-1.3061-0.2449-0.81633 0-1.4694 0.28571-1.9592 0.81633-0.4898 0.53061-0.77551 1.3061-0.89796 2.3265h5.8367c-0.040816-0.40816-0.12245-0.81633-0.2449-1.1837z"/>
<path id="c" d="m109.63 17.633v-1.2245c-0.44898 0.40816-0.93878 0.77551-1.4694 1.0612-0.53061 0.28571-1.102 0.40816-1.7959 0.40816-0.69388 0-1.3061-0.12245-1.8776-0.36735-0.57143-0.2449-1.102-0.65306-1.551-1.1837-0.44898-0.53061-0.77551-1.2245-1.0204-2.0816-0.2449-0.85714-0.36735-1.8776-0.36735-3.0612 0-1.0612 0.12245-2 0.40816-2.7755 0.28571-0.77551 0.61224-1.4694 1.102-1.9592 0.44898-0.53061 0.97959-0.89796 1.5918-1.1837 0.61224-0.2449 1.2245-0.36735 1.8776-0.36735s1.2245 0.16327 1.7959 0.44898c0.57143 0.28571 1.0204 0.61224 1.3469 1.0204v-4.8571l2.449-1.2653v17.388h-2.4898zm0-8.8571c-0.12245-0.20408-0.32653-0.36735-0.53061-0.57143-0.20408-0.20408-0.44898-0.36735-0.69388-0.53061-0.2449-0.16327-0.53061-0.28571-0.81633-0.40816-0.28572-0.12245-0.57143-0.16327-0.89796-0.16327-0.89796 0-1.551 0.32653-2 0.97959-0.44898 0.65306-0.69388 1.6327-0.69388 2.9796 0 1.5918 0.2449 2.7347 0.73469 3.4286 0.4898 0.69388 1.1837 1.0612 2.0816 1.0612 0.57143 0 1.1429-0.16327 1.6327-0.4898s0.89796-0.69388 1.2245-1.102v-5.1837h-0.040816z"/>
<path d="m114.2 5.3469v1.5102h-0.32653v-1.5102h-0.53061v-0.28571h1.3469v0.28571h-0.4898zm2.1224 1.5102v-0.93878-0.20408c0 0.040816-0.040817 0.040816-0.040817 0.081633 0 0.040816-0.040816 0.040816-0.040816 0.081633l-0.44898 1.0204-0.44898-1.0204c0-0.040816-0.040817-0.040816-0.040817-0.081633 0-0.040816-0.040816-0.040816-0.040816-0.081633v0.12245 0.081633 0.93878h-0.28571v-1.7959h0.32653l0.40816 0.93878c0 0.040816 0.040816 0.081633 0.040816 0.12245s0.040816 0.081633 0.040816 0.12245c0-0.040816 0.040817-0.081633 0.040817-0.12245s0.040816-0.081633 0.040816-0.12245l0.40816-0.93878h0.32653v1.7959h-0.28571z"/>
</g>
<g transform="translate(14.694)">
<path id="Path" d="m9.8367 6.3673c0.20408-1.1429 0.69388-2.2449 1.3469-2.898-1.4286 1.1429-2.4082 1.6735-3.9592 3.3469-0.44898 0.4898-0.81633 1.1429-1.102 1.9184 0.61224-0.36735 1.2245-0.77551 1.8367-1.1837 0.65306-0.40816 1.2653-0.81633 1.8776-1.1837z"/>
<path id="a" d="m3.2653 17.714c-1.0204 0.69388-2.2041 2.4082-2.4082 3.6327 2.5306-1.6327 8.2449-3.9184 9.5102-8.1224-1.4286 0.89796-3.0204 1.9184-4.3673 2.7347-1.2245 0.77551-2.3265 1.4694-2.7347 1.7551z"/>
<path d="m13.224 4.7347c-1.4286 1.0612-8.7755 5.551-10.204 6.6531-1.3878 1.0612-2.5714 2.8163-2.6531 4.4082-0.081633 1.5918 0 5.9592 0 5.9592 0-1.4694 1.4286-3.551 2.6531-4.4082 1.2653-0.89796 8.449-5.1429 10.204-6.6531 1.7551-1.5102 2.4898-2.9796 2.6531-4.4082 0.32653-2.6122 0.040816-3.8367 0-5.9592-0.16327 1.4694-1.2245 3.3061-2.6531 4.4082z"/>
</g>
</g>
</g>
</g>
</g>
</g>
</g>
</svg>
