<?xml version="1.0" encoding="UTF-8"?>
<svg version="1.0" viewBox="0 0 243 48" xmlns="http://www.w3.org/2000/svg">
<g transform="translate(-312.79 -254.08)">
<path d="m408.68 274.38 0.21382-0.22151 0.22344-0.21189 0.23118-0.19265 0.23982-0.18299 0.24559-0.17337 0.25236-0.16373 0.25714-0.15409 0.26103-0.13484 0.26581-0.13484 0.26776-0.12522 0.54129-0.21189 0.27256-0.09632 0.27161-0.07704 0.26968-0.08669 0.26872-0.06742 0.26582-0.06741 0.26294-0.04817 0.25813-0.05778 0.25331-0.03852 0.24656-0.03853 0.24079-0.03853 0.23307-0.02889 0.22537-0.01926 0.21575-0.01928 0.20612-0.01926 0.19552-0.00963 0.18396-0.00963 0.17143-0.00963h0.15893l0.14542-0.00963h0.13101c0.6395 0 2.3058 0.05778 3.9392 0.56826 3.3325 1.0498 5.0074 3.2872 5.0074 5.7403 0 0.48541-0.04143 1.5083-0.71852 2.6939-0.7156 1.2636-2.8634 3.66-8.1116 3.66-1.908 0-3.1418-0.29664-3.8526-0.48158-4.6125-1.3205-5.0902-4.4728-5.173-5.5756-0.03755-0.67322-0.07898-2.3703 1.4332-3.9566zm-4.0934 10.368 0.38141 0.27448 0.39009 0.25813 0.39776 0.24271 0.40452 0.22731 0.4103 0.21285 0.41609 0.19842 0.41897 0.18588 0.42088 0.17144 0.42378 0.15892 0.42475 0.14735 0.42379 0.1358 0.42282 0.12425 0.42089 0.1127 0.41799 0.10305 0.41321 0.09343 0.40837 0.08379 0.40161 0.07512 0.3949 0.06646 0.38622 0.05971 0.37756 0.05104 0.36791 0.04431 0.35638 0.03854 0.34382 0.03273 0.33134 0.02601 0.31687 0.02216 0.30147 0.01733 0.2851 0.01348 0.26871 0.00963 0.25041 0.00675 0.23117 0.00482 0.2109 0.00193 0.19071 9.5e-4c3.6156 0 7.2303-0.66938 10.015-2.1825 1.7905-0.967 5.173-3.3932 5.173-7.6223 0-1.0758-0.27835-4.0154-3.2622-6.4617-2.9829-2.4271-7.5501-3.4962-11.926-3.4962-1.5921 0-6.3625 0.12521-10.181 2.2249-1.828 1.0017-5.1692 3.5058-5.0902 7.7601 0.0414 1.1625 0.35733 4.0962 3.6609 6.5763zm39.582-15.974h25.061l0.28895 3.5925h-9.6796v14.981h-6.2797v-14.981h-9.6988l0.3082-3.5925zm-63.462 12.29-0.04911 0.07322-0.04817 0.0703-0.04623 0.06742-0.04525 0.06549-0.04431 0.06164-0.04334 0.06069-0.0424 0.05778-0.0414 0.05491-0.04046 0.05393-0.04045 0.05104-0.03853 0.04913-0.03852 0.04815-0.03852 0.04527-0.03756 0.0443-0.03662 0.04335-0.03659 0.04045-0.07223 0.07896-0.07128 0.07418-0.07126 0.07031-0.07128 0.06645-0.07224 0.06453-0.07415 0.06356-0.07513 0.06261-0.07801 0.0626c-1.0835 0.88803-2.8894 1.8512-6.5157 1.8512-0.23694 0.01059-0.48544 0.01059-0.74162 0.01059-1.3359 0-4.1906-0.08572-6.689-1.8242-2.141-1.49-2.3173-3.6118-2.3173-4.3948 0-2.5504 1.5266-3.9113 2.5283-4.6048 1.7115-1.1269 4.2619-1.7722 6.8547-1.7722 0.12809 0 0.36503 0.01926 0.36503 0.01926 2.4599 0 4.1569 0.62605 4.966 1.0113 1.4072 0.70308 2.1102 1.5121 2.5022 1.9571l6.7902-0.83023c-0.13869-0.26005-0.31591-0.52011-0.49216-0.78015-0.45942-0.59715-1.6181-1.8781-3.7322-2.9472-3.8719-1.907-8.6616-2.0034-10.034-2.0034h-0.03082c-3.6378 0-7.3209 0.41416-10.512 2.013-3.5097 1.7529-5.278 4.8147-5.278 7.7947 0 3.1678 1.5651 5.9291 4.4728 7.7128 2.8182 1.7231 6.8518 2.2538 10.648 2.2538 0.23692 0 0.47001-0.00385 0.7002-0.01156 5.8992-0.05297 9.0853-1.4293 11.091-2.7353 1.5131-0.98915 2.1863-1.8213 2.5658-2.3963 0.31977-0.47098 0.76377-1.2039 0.85045-1.75l-6.7382-0.00386zm124.03-12.29-7.2236 7.5607c-0.38526 0.37273-0.62603 0.84274-0.62603 0.84274s-0.23117-0.47001-0.62606-0.84274c-0.03852-0.03756-6.3664-6.8383-7.0406-7.5607h-6.848l11.384 11.387v7.1668h6.2797v-7.1668l11.413-11.387h-6.7131z" fill="#0053d1" fill-rule="evenodd" stroke-miterlimit="10.433" stroke-width="0"/>
</g>
</svg>
