<?xml version="1.0" encoding="UTF-8"?>
<svg viewBox="0 0 55 55" xmlns="http://www.w3.org/2000/svg">
<style type="text/css">.st0{fill-rule:evenodd;clip-rule:evenodd;fill:none;}
    .st1{fill:#3B73B9;}</style>
<g transform="translate(-1167 -73)">
<g transform="translate(732 30)">
<g transform="translate(0 43)">
<g transform="translate(435)">
<rect x=".5" width="53.6" height="55" className="st0"/>
<path d="m46.5 7.9c-5.3-5.3-11.7-7.9-19.2-7.9s-13.9 2.6-19.3 7.9-8 11.7-8 19.1c0 7.5 2.7 13.9 8 19.2s11.7 7.9 19.2 7.9 13.9-2.6 19.2-7.9 8-11.7 8-19.2c0.1-7.4-2.6-13.8-7.9-19.1zm-0.9 37.4c-5 5-11.2 7.6-18.3 7.6s-13.2-2.5-18.3-7.6c-5.1-5-7.6-11.1-7.6-18.2s2.5-13.2 7.6-18.2 11.2-7.5 18.3-7.5 13.2 2.5 18.3 7.6 7.6 11.1 7.6 18.2-2.5 13-7.6 18.1zm2.2-30.8c-2.5-4-5.9-6.7-10.4-8-2.2-0.6-4-1-5.5-1-1.7 0-3 0.4-4.1 1.2-1.1 0.9-1.9 1.3-2.4 1.3-1.3 0-1.9-0.6-1.9-1.8 0-0.9 0.5-1.6 1.4-2.2 1-0.6 2.2-0.9 3.8-0.9 2.6 0 4.5 0.3 5.8 1l0.1-0.2c-2.4-0.8-4.9-1.3-7.7-1.3-4.6 0-8.7 1.1-12.4 3.4-4 2.4-6.6 5.9-8 10.3-0.7 2.1-1 3.9-1 5.5s0.4 3 1.2 4.2c0.8 1.1 1.2 1.9 1.2 2.4 0 1.2-0.6 1.8-1.8 1.8-2.1 0-3.1-1.7-3.1-5.2 0-2 0.3-4 0.9-5.8l-0.2-0.1c-0.8 3.2-1.2 5.7-1.2 7.6 0 4.6 1.1 8.8 3.4 12.4 2.6 3.9 6.1 6.6 10.6 7.9 2.1 0.6 3.9 1 5.5 1 1.7 0 3-0.4 4.1-1.3 1.1-0.8 1.9-1.3 2.4-1.3 1.3 0 1.9 0.6 1.9 1.9 0 0.8-0.5 1.6-1.4 2.1-1 0.6-2.2 0.9-3.8 0.9-2.4 0-4.3-0.3-5.8-0.9l-0.1 0.2c1.8 0.8 4.3 1.2 7.7 1.2 4.6 0 8.7-1.1 12.4-3.4 4-2.4 6.6-5.9 8-10.3 0.7-2.1 1-3.9 1-5.4 0-1.7-0.4-3.1-1.2-4.2s-1.2-1.9-1.2-2.4c0-1.2 0.6-1.9 1.8-1.9 0.9 0 1.6 0.5 2.2 1.5s0.9 2.3 0.9 3.9c0 1.7-0.3 3.7-0.9 5.8l0.2 0.1c0.8-2.4 1.2-5 1.2-7.7-0.2-4.7-1.3-8.7-3.6-12.3zm-7.8 24.4c-1.4 1.4-3.1 2.1-5.2 2.1-2.5 0-4.4-0.9-5.9-2.7-1.3-1.5-2-3.4-2-5.5 0-3.9 1.8-6.8 5.4-8.6-0.3-0.2-0.5-0.5-0.8-0.9-2.1 1.5-4.4 2.9-6.9 4.3-0.2 3.2-0.5 5.5-1 6.8-1.5 4.4-3.9 6.6-7.4 6.6-1.4 0-2.5-0.4-3.2-1.3-0.8-0.8-1.1-1.9-1.1-3.1 0-1.9 0.9-3.7 2.7-5.3 1-0.8 2.1-1.7 3.5-2.5 0.7-0.4 2.2-1.2 4.4-2.3 0.1-0.6 0.2-1.1 0.2-1.4-0.8 0.7-1.8 1-3 1-1.7 0-2.8-0.9-3.2-2.8-2.5-0.2-3.7-1.5-3.8-4-0.1-2.1 0.6-3.2 1.8-3.2 0.4 0 0.6 0.2 0.6 0.7 0 0-0.1 0.3-0.2 0.9-0.1 0.5-0.2 1-0.2 1.4 0 1.5 0.6 2.2 1.7 2.2 0-2 0.6-4 1.9-6s2.7-2.9 4.3-2.9c1.7 0 2.6 0.8 2.6 2.4 0 1.7-0.7 3.4-2.1 5.1s-2.8 2.8-4.3 3.3c0.2 0.7 0.6 1.1 1.3 1.1 1.1 0 2.2-0.6 3.2-1.9 0.5-2.5 1.5-3.8 2.9-3.8 0.6 0 0.9 0.3 0.9 1 0 0.8-0.7 2-2.1 3.5-0.2 0.7-0.2 1.5-0.2 2.2 2.6-1.5 4.6-2.8 6-3.8-0.1-0.3-0.2-0.9-0.2-1.7 0-1.8 0.5-3.5 1.6-5.1 1.1-1.5 2.3-2.3 3.8-2.3 1.8 0 2.6 0.8 2.6 2.5 0 2.1-1.8 4.5-5.3 7.1 0.3 0.7 0.7 1.2 1.2 1.4 0.1-0.2 0.7-0.3 1.9-0.3 1.5 0 2.2 0.4 2.2 1.1 0 0.8-0.9 1.3-2.6 1.3-0.4 0-0.9 0-1.6-0.1-3.2 0.8-4.8 3.2-4.8 7.1 0 1.7 0.5 3.2 1.5 4.4s2.2 1.8 3.7 1.8c1.3 0 2.3-0.4 3.2-1.3 0.9-0.8 1.3-1.9 1.3-3.3 0.1-2.4-0.8-3.7-2.6-3.7-1.1 0-1.7 0.5-1.7 1.6 0 0.5 0.2 1 0.5 1.5 0.4 0.4 0.5 0.8 0.5 1.1 0 0.6-0.4 1-1.1 1-0.8 0-1.4-0.3-1.9-1-0.5-0.6-0.8-1.4-0.8-2.4 0-1.1 0.4-2.1 1.3-2.9s1.9-1.2 3.2-1.2c1.6 0 2.8 0.6 3.7 1.7s1.4 2.5 1.4 4.2c0.2 1.9-0.5 3.5-1.8 4.9zm-3.7-24.6c-0.6 0-1.2 0.5-1.8 1.6-0.6 1-1 2.3-1 3.6 2.2-1.9 3.3-3.4 3.3-4.4 0-0.5-0.2-0.8-0.5-0.8zm-13.2 0c-0.8 0-1.7 0.8-2.6 2.3-1 1.6-1.4 3-1.4 4.2 1.3-0.6 2.3-1.6 3.2-2.8s1.3-2.3 1.3-3.2c0.1-0.3-0.1-0.5-0.5-0.5zm-8.6 22.2c0 1.3 0.6 2 1.8 2 1.5 0 2.9-1.1 4.1-3.2 1-1.8 1.6-4 2-6.5-5.3 2.4-7.9 5-7.9 7.7z" fill="#1D4354" className="st1"/>
</g>
</g>
</g>
</g>
</svg>
