<?xml version="1.0" encoding="UTF-8"?>
<svg version="1.1" viewBox="0 0 40 40" xmlns="http://www.w3.org/2000/svg" xmlnsXlink="http://www.w3.org/1999/xlink">
<title>A7C1C902-5ED1-4174-9DF0-BE2C28F164C9</title>
<g fill="none" fill-rule="evenodd">
<g transform="translate(-732 -220)">
<g transform="translate(230 219)">
<g transform="translate(208 1)">
<g transform="translate(294)">
<rect x=".36364" width="38.982" height="40"/>
<path d="m33.818 5.7455c-3.8545-3.8545-8.5091-5.7455-13.964-5.7455-5.4545 0-10.109 1.8909-14.036 5.7455-3.9273 3.8545-5.8182 8.5091-5.8182 13.891 0 5.4545 1.9636 10.109 5.8182 13.964 3.8545 3.8545 8.5091 5.7455 13.964 5.7455 5.4545 0 10.109-1.8909 13.964-5.7455 3.8545-3.8545 5.8182-8.5091 5.8182-13.964 0.072727-5.3818-1.8909-10.036-5.7455-13.891zm-0.65455 27.2c-3.6364 3.6364-8.1455 5.5273-13.309 5.5273-5.1636 0-9.6-1.8182-13.309-5.5273-3.7091-3.6364-5.5273-8.0727-5.5273-13.236s1.8182-9.6 5.5273-13.236c3.7091-3.6364 8.1455-5.4545 13.309-5.4545 5.1636 0 9.6 1.8182 13.309 5.5273 3.7091 3.7091 5.5273 8.0727 5.5273 13.236 0 5.1636-1.8182 9.4545-5.5273 13.164zm1.6-22.4c-1.8182-2.9091-4.2909-4.8727-7.5636-5.8182-1.6-0.43636-2.9091-0.72727-4-0.72727-1.2364 0-2.1818 0.29091-2.9818 0.87273-0.8 0.65455-1.3818 0.94545-1.7455 0.94545-0.94545 0-1.3818-0.43636-1.3818-1.3091 0-0.65455 0.36364-1.1636 1.0182-1.6 0.72727-0.43636 1.6-0.65455 2.7636-0.65455 1.8909 0 3.2727 0.21818 4.2182 0.72727l0.072727-0.14545c-1.7455-0.58182-3.5636-0.94545-5.6-0.94545-3.3455 0-6.3273 0.8-9.0182 2.4727-2.9091 1.7455-4.8 4.2909-5.8182 7.4909-0.50909 1.5273-0.72727 2.8364-0.72727 4 0 1.1636 0.29091 2.1818 0.87273 3.0545 0.58182 0.8 0.87273 1.3818 0.87273 1.7455 0 0.87273-0.43636 1.3091-1.3091 1.3091-1.5273 0-2.2545-1.2364-2.2545-3.7818 0-1.4545 0.21818-2.9091 0.65455-4.2182l-0.14545-0.072727c-0.58182 2.3273-0.87273 4.1455-0.87273 5.5273 0 3.3455 0.8 6.4 2.4727 9.0182 1.8909 2.8364 4.4364 4.8 7.7091 5.7455 1.5273 0.43636 2.8364 0.72727 4 0.72727 1.2364 0 2.1818-0.29091 2.9818-0.94545 0.8-0.58182 1.3818-0.94545 1.7455-0.94545 0.94545 0 1.3818 0.43636 1.3818 1.3818 0 0.58182-0.36364 1.1636-1.0182 1.5273-0.72727 0.43636-1.6 0.65455-2.7636 0.65455-1.7455 0-3.1273-0.21818-4.2182-0.65455l-0.072727 0.14545c1.3091 0.58182 3.1273 0.87273 5.6 0.87273 3.3455 0 6.3273-0.8 9.0182-2.4727 2.9091-1.7455 4.8-4.2909 5.8182-7.4909 0.50909-1.5273 0.72727-2.8364 0.72727-3.9273 0-1.2364-0.29091-2.2545-0.87273-3.0545s-0.87273-1.3818-0.87273-1.7455c0-0.87273 0.43636-1.3818 1.3091-1.3818 0.65455 0 1.1636 0.36364 1.6 1.0909 0.43636 0.72727 0.65455 1.6727 0.65455 2.8364 0 1.2364-0.21818 2.6909-0.65455 4.2182l0.14545 0.072727c0.58182-1.7455 0.87273-3.6364 0.87273-5.6-0.14545-3.4182-0.94545-6.3273-2.6182-8.9455zm-5.6727 17.745c-1.0182 1.0182-2.2545 1.5273-3.7818 1.5273-1.8182 0-3.2-0.65455-4.2909-1.9636-0.94545-1.0909-1.4545-2.4727-1.4545-4 0-2.8364 1.3091-4.9455 3.9273-6.2545-0.21818-0.14545-0.36364-0.36364-0.58182-0.65455-1.5273 1.0909-3.2 2.1091-5.0182 3.1273-0.14545 2.3273-0.36364 4-0.72727 4.9455-1.0909 3.2-2.8364 4.8-5.3818 4.8-1.0182 0-1.8182-0.29091-2.3273-0.94545-0.58182-0.58182-0.8-1.3818-0.8-2.2545 0-1.3818 0.65455-2.6909 1.9636-3.8545 0.72727-0.58182 1.5273-1.2364 2.5455-1.8182 0.50909-0.29091 1.6-0.87273 3.2-1.6727 0.072727-0.43636 0.14545-0.8 0.14545-1.0182-0.58182 0.50909-1.3091 0.72727-2.1818 0.72727-1.2364 0-2.0364-0.65455-2.3273-2.0364-1.8182-0.14545-2.6909-1.0909-2.7636-2.9091-0.072727-1.5273 0.43636-2.3273 1.3091-2.3273 0.29091 0 0.43636 0.14545 0.43636 0.50909 0 0-0.072727 0.21818-0.14545 0.65455-0.072727 0.36364-0.14545 0.72727-0.14545 1.0182 0 1.0909 0.43636 1.6 1.2364 1.6 0-1.4545 0.43636-2.9091 1.3818-4.3636 0.94545-1.4545 1.9636-2.1091 3.1273-2.1091 1.2364 0 1.8909 0.58182 1.8909 1.7455 0 1.2364-0.50909 2.4727-1.5273 3.7091-1.0182 1.2364-2.0364 2.0364-3.1273 2.4 0.14545 0.50909 0.43636 0.8 0.94545 0.8 0.8 0 1.6-0.43636 2.3273-1.3818 0.36364-1.8182 1.0909-2.7636 2.1091-2.7636 0.43636 0 0.65455 0.21818 0.65455 0.72727 0 0.58182-0.50909 1.4545-1.5273 2.5455-0.14545 0.50909-0.14545 1.0909-0.14545 1.6 1.8909-1.0909 3.3455-2.0364 4.3636-2.7636-0.072727-0.21818-0.14545-0.65455-0.14545-1.2364 0-1.3091 0.36364-2.5455 1.1636-3.7091 0.8-1.0909 1.6727-1.6727 2.7636-1.6727 1.3091 0 1.8909 0.58182 1.8909 1.8182 0 1.5273-1.3091 3.2727-3.8545 5.1636 0.21818 0.50909 0.50909 0.87273 0.87273 1.0182 0.072727-0.14545 0.50909-0.21818 1.3818-0.21818 1.0909 0 1.6 0.29091 1.6 0.8 0 0.58182-0.65455 0.94545-1.8909 0.94545-0.29091 0-0.65455 0-1.1636-0.072727-2.3273 0.58182-3.4909 2.3273-3.4909 5.1636 0 1.2364 0.36364 2.3273 1.0909 3.2 0.72727 0.87273 1.6 1.3091 2.6909 1.3091 0.94545 0 1.6727-0.29091 2.3273-0.94545 0.65455-0.58182 0.94545-1.3818 0.94545-2.4 0.072727-1.7455-0.58182-2.6909-1.8909-2.6909-0.8 0-1.2364 0.36364-1.2364 1.1636 0 0.36364 0.14545 0.72727 0.36364 1.0909 0.29091 0.29091 0.36364 0.58182 0.36364 0.8 0 0.43636-0.29091 0.72727-0.8 0.72727-0.58182 0-1.0182-0.21818-1.3818-0.72727-0.36364-0.43636-0.58182-1.0182-0.58182-1.7455 0-0.8 0.29091-1.5273 0.94545-2.1091 0.65455-0.58182 1.3818-0.87273 2.3273-0.87273 1.1636 0 2.0364 0.43636 2.6909 1.2364 0.65455 0.8 1.0182 1.8182 1.0182 3.0545 0.14545 1.3818-0.36364 2.5455-1.3091 3.5636zm-2.6909-17.891c-0.43636 0-0.87273 0.36364-1.3091 1.1636-0.43636 0.72727-0.72727 1.6727-0.72727 2.6182 1.6-1.3818 2.4-2.4727 2.4-3.2 0-0.36364-0.14545-0.58182-0.36364-0.58182zm-9.6 0c-0.58182 0-1.2364 0.58182-1.8909 1.6727-0.72727 1.1636-1.0182 2.1818-1.0182 3.0545 0.94545-0.43636 1.6727-1.1636 2.3273-2.0364 0.65455-0.87273 0.94545-1.6727 0.94545-2.3273 0.072727-0.21818-0.072727-0.36364-0.36364-0.36364zm-6.2545 16.145c0 0.94545 0.43636 1.4545 1.3091 1.4545 1.0909 0 2.1091-0.8 2.9818-2.3273 0.72727-1.3091 1.1636-2.9091 1.4545-4.7273-3.8545 1.7455-5.7455 3.6364-5.7455 5.6z" fill="#3B73B9" fill-rule="nonzero"/>
</g>
</g>
</g>
</g>
</g>
</svg>
