<?xml version="1.0" encoding="UTF-8"?>
<svg viewBox="0 0 110 40" xmlns="http://www.w3.org/2000/svg">
<g fill="none" fillRule="evenodd">
<rect width="109.55" height="40"/>
<path transform="translate(0 8)" d="m21.841 1.0466c-2.6314-1.67-6.0956-1.2721-9.1853 0.69981-3.08-1.9719-6.5463-2.3698-9.1745-0.69981-4.1575 2.639-4.6629 9.4355-1.1279 15.181 2.6057 4.2359 6.6805 6.718 10.308 6.6722 3.6273 0.045782 7.7021-2.4363 10.308-6.6722 3.5307-5.7456 3.0296-12.542-1.1279-15.181zm-17.576 13.968c-0.72891-1.1737-1.2789-2.4526-1.6312-3.7934-0.31305-1.1638-0.43274-2.3726-0.35415-3.5764 0.15776-2.1234 1.0088-3.777 2.3953-4.6567 1.3865-0.87967 3.2195-0.93308 5.1716-0.14607 0.29298 0.11882 0.58273 0.25616 0.87034 0.40768-1.0848 1.0047-2.028 2.1564-2.8031 3.4227-2.1463 3.4882-2.801 7.3698-2.0519 10.464-0.59729-0.65446-1.132-1.3651-1.5969-2.1223zm18.425-3.7945c-0.35282 1.3406-0.90274 2.6194-1.6312 3.7934-0.46529 0.75831-0.99995 1.4704-1.5969 2.1267 0.66966-2.7742 0.21463-6.1729-1.4273-9.3602-0.053032-0.10616-0.14785-0.18453-0.26096-0.21569-0.11311-0.031164-0.23392-0.012202-0.3325 0.052184l-5.119 3.2483c-0.0943 0.059764-0.16132 0.15517-0.18629 0.26519-0.024964 0.11001-0.0058192 0.2256 0.053212 0.32126l0.75122 1.2198c0.058636 0.095709 0.15238 0.16376 0.26052 0.18913s0.22176 0.0059456 0.31578-0.053961l3.3182-2.106c0.10732 0.32701 0.21463 0.65403 0.29512 0.98104 0.31299 1.1624 0.43304 2.3696 0.35522 3.5721-0.15776 2.1223-1.0088 3.7759-2.3953 4.6567-0.71517 0.44413-1.5346 0.68507-2.3728 0.69763h-0.10624c-0.83819-0.012297-1.6577-0.25325-2.3728-0.69763-1.3876-0.88076-2.2386-2.5344-2.3964-4.6567-0.078113-1.2038 0.041571-2.4125 0.35415-3.5764 0.71922-2.6928 2.2059-5.1097 4.2734-6.9469 0.89155-0.79487 1.907-1.4336 3.0049-1.8901 1.9467-0.78701 3.7829-0.73469 5.1705 0.14607 1.3876 0.88076 2.2376 2.5333 2.3953 4.6567 0.079609 1.204-0.038624 2.413-0.34985 3.5775zm26.424-2.5365c-2.6915 0-4.8668 2.1343-4.8668 4.8496 0 2.6968 2.1753 4.7962 4.8668 4.7962 2.7098 0 4.8851-2.0962 4.8851-4.7962 0-2.7142-2.1721-4.8485-4.8851-4.8485v-0.00109zm0 7.1104c-1.2406 0-2.185-1.0192-2.185-2.2793s0.94439-2.2945 2.185-2.2945c1.2588 0 2.2032 1.0377 2.2032 2.2978s-0.94439 2.2804-2.2032 2.2804v-0.0043602zm10.954-10.835h-4.9527c-0.10811-0.0020299-0.21239 0.040741-0.28875 0.11851-0.076359 0.077766-0.11819 0.1838-0.11583 0.2936v12.264c-0.0077942 0.11351 0.031474 0.22517 0.10831 0.30798 0.076838 0.082807 0.18425 0.12923 0.29627 0.12806h4.9527c3.9632 0 6.717-2.6772 6.717-6.5719 0-3.9187-2.7538-6.5404-6.717-6.5404zm0.11698 10.522h-2.7098v-7.9388h2.7098c2.1936 0 3.7057 1.6667 3.7057 3.9514 0 2.2466-1.5121 3.9874-3.7057 3.9874zm16.458-6.5337h-1.862c-0.2134 0.01714-0.37989 0.1947-0.38634 0.41204v0.56137c-0.4239-0.7118-1.3822-1.2361-2.5756-1.2361-2.3223 0-4.4977 1.8531-4.4977 4.8126 0 2.9431 2.156 4.83 4.4794 4.83 1.1977 0 2.1753-0.52322 2.5992-1.235v0.57991c0.0011666 0.21641 0.17329 0.39172 0.38634 0.39351h1.862c0.10346 0.0024097 0.20338-0.038275 0.27656-0.1126 0.073175-0.074326 0.11323-0.17582 0.11086-0.28091v-8.3127c0.0031878-0.10797-0.036748-0.21266-0.11072-0.29027s-0.17571-0.12152-0.28206-0.12177zm-4.3313 6.8673c-1.2331 0-2.1592-0.96251-2.1592-2.2978 0-1.3353 0.92615-2.2967 2.1592-2.2967 1.2331 0 2.1592 0.96033 2.1592 2.2956 0 1.3353-0.92507 2.2978-2.1592 2.2978v0.0010901zm14.783-10.856h-1.862c-0.10528-0.0032246-0.20742 0.036632-0.28349 0.11062s-0.1197 0.17591-0.12109 0.28288v4.5313c-0.42927-0.67474-1.4016-1.1991-2.6175-1.1991-2.3052 0-4.4429 1.8531-4.4429 4.8126 0 2.9431 2.156 4.83 4.4794 4.83 1.1977 0 2.1013-0.52322 2.5992-1.235v0.57991c5.86e-4 0.21666 0.17304 0.39231 0.38634 0.39351h1.862c0.10355 0.0027253 0.20366-0.037858 0.2769-0.11225 0.073244-0.074396 0.1132-0.17608 0.11052-0.28125v-12.318c0.0032843-0.10555-0.036404-0.20781-0.10972-0.28268s-0.17377-0.11576-0.2777-0.113zm-4.3313 10.879c-1.2277 0-2.1463-0.97232-2.1463-2.3218 0-1.3495 0.92185-2.3218 2.1463-2.3218s2.1463 0.97232 2.1463 2.3218c0 1.3495-0.91756 2.3218-2.1463 2.3218zm14.781-10.879h-1.8587c-0.10538-0.0032231-0.20763 0.036601-0.28387 0.11056s-0.12011 0.17588-0.12179 0.28295v4.5313c-0.4239-0.67474-1.4016-1.1991-2.6175-1.1991-2.3052 0-4.4429 1.8531-4.4429 4.8126 0 2.9431 2.1571 4.83 4.4794 4.83 1.1987 0 2.1013-0.52322 2.5992-1.235v0.57991c0.001173 0.21683 0.17394 0.39232 0.38741 0.39351h1.8587c0.10345 0.002739 0.20346-0.037876 0.27654-0.11231 0.073077-0.074432 0.11279-0.17612 0.1098-0.2812v-12.318c0.0035871-0.10545-0.035855-0.20772-0.109-0.28263-0.073146-0.074915-0.1735-0.11582-0.27734-0.11306zm-4.3313 10.879c-1.2288 0-2.1463-0.97232-2.1463-2.3218 0-1.3495 0.92185-2.3218 2.1463-2.3218s2.1463 0.97232 2.1463 2.3218c0 1.3495-0.91541 2.3218-2.1431 2.3218h-0.0032195zm14.526-6.2525-2.7784 9.6785c-0.53658 1.7223-1.7332 2.7524-3.5951 2.7524-0.84673 0-1.6173-0.1755-2.2215-0.52649-0.352-0.20384-0.6439-0.39024-0.6439-0.68891 0-0.18531 0.059024-0.28123 0.16634-0.45455l0.55161-0.83934c0.15561-0.23436 0.27044-0.31066 0.43785-0.31066 0.13266 0.003312 0.26099 0.048666 0.36702 0.12972 0.34663 0.22782 0.66858 0.42403 1.159 0.42403 0.57307 0 1.0109-0.1864 1.247-0.87967l0.23824-0.80336h-1.1247c-0.23762 0.0077313-0.44691-0.15766-0.49795-0.39351l-2.4865-8.0882c-0.092293-0.31829-0.0075122-0.63659 0.45288-0.63659h1.9585c0.23932 0 0.40673 0.082847 0.5119 0.43057l1.8362 6.513 1.7171-6.513c0.054732-0.22455 0.20283-0.43057 0.49795-0.43057h1.8577c0.36595-0.0010866 0.47649 0.26052 0.34878 0.63659zm-64.194 2.8788v5.1701c0.0017055 0.11386-0.042052 0.22359-0.12133 0.30411-0.079277 0.080524-0.1873 0.12497-0.2994 0.12319h-1.5368c-0.11219 0.0020914-0.22039-0.042256-0.29974-0.12285-0.079344-0.080592-0.123-0.1905-0.12095-0.30445v-1.3571c-0.97551 1.2514-2.6722 2.0395-4.591 2.0395-3.6037 0-6.4197-2.7535-6.4197-6.6733 0-4.0735 3.0403-6.8815 6.8812-6.8815 2.8353 0 5.1019 1.2383 6.1085 3.7291 0.028194 0.065815 0.043853 0.13646 0.046146 0.2082 0 0.11773-0.076195 0.20711-0.32195 0.29322l-1.7943 0.70199c-0.10824 0.045584-0.22952 0.047533-0.33912 0.0054502-0.096085-0.057629-0.17134-0.14516-0.21463-0.24962-0.6439-1.2437-1.79-2.0885-3.5543-2.0885-2.288 0-3.9267 1.8149-3.9267 4.1683 0 2.2815 1.3951 4.1574 3.9922 4.1574 1.3661 0 2.4554-0.65403 2.963-1.3724h-1.6205c-0.1121 0.0017841-0.22013-0.042662-0.2994-0.12319-0.079277-0.080524-0.12303-0.19025-0.12128-0.30411v-1.4051c-0.0017565-0.11386 0.042001-0.22359 0.12128-0.30411 0.079277-0.080524 0.1873-0.12497 0.2994-0.12319h4.7488c0.11002-0.0057025 0.2175 0.034906 0.29711 0.11226 0.079608 0.077353 0.12431 0.18461 0.12363 0.29651zm64.244-5.4306v-0.12536c-1.19e-4 -0.0087907 0.002935-0.017322 0.008586-0.023981 0.006227-0.0055785 0.014233-0.0086765 0.022536-0.0087204h0.78449c0.008361-2.8788e-4 0.016484 0.0028552 0.022537 0.0087204 0.00565 0.0066594 0.008705 0.01519 0.008588 0.023981v0.12536c-5.6e-5 0.0084318-0.003105 0.016561-0.008588 0.022891-0.006053 0.0058652-0.014176 0.0090083-0.022537 0.0087204h-0.28654v0.78592c-5.58e-4 0.017821-0.014651 0.032135-0.032196 0.032701h-0.1481c-0.008199-3.851e-5 -0.015998-0.0036032-0.021464-0.0098104-0.006167-0.0059664-0.009658-0.01424-0.009658-0.022891v-0.78592h-0.28654c-0.008437 6.6224e-4 -0.016737-0.0024549-0.022721-0.0085327-0.005984-0.0060778-0.009053-0.014509-0.008401-0.023079zm1.3715-0.12972 0.21463 0.50469 0.21463-0.50469c0.003285-0.008943 0.009302-0.016583 0.017171-0.021801 0.008935-0.0046982 0.018921-0.0069522 0.028975-0.0065403h0.24898c0.008239-6.2834e-4 0.016351 0.0023462 0.022295 0.0081758 0.005945 0.0058296 0.009156 0.013959 0.008827 0.022346v0.94616c6.18e-4 0.0083692-0.00231 0.016609-0.008049 0.022646-0.00574 0.0060378-0.013744 0.0092995-0.022 0.0089651h-0.13951c-0.008361 2.8789e-4 -0.016484-0.0028552-0.022537-0.0087204-0.006128-0.0059153-0.009285-0.014334-0.008585-0.022891v-0.71398l-0.23073 0.51886c-0.003357 0.0097953-0.009297 0.018467-0.017171 0.025071-0.008837 0.0049669-0.018898 0.0072379-0.028975 0.0065403h-0.11376c-0.009723 5.4232e-4 -0.019397-0.0017254-0.027903-0.0065403-0.008199-0.0062935-0.014213-0.015074-0.017171-0.025071l-0.22966-0.51886v0.71398c4.82e-4 0.0083338-0.002491 0.016492-0.0082 0.022498s-0.013632 0.0093105-0.021849 0.0091133h-0.14273c-0.00803-1.0513e-4 -0.015669-0.0035421-0.021142-0.0095127-0.005473-0.0059706-0.008303-0.013955-0.007833-0.022099v-0.94616c-3.29e-4 -0.0083861 0.002882-0.016516 0.008826-0.022346s0.014056-0.0088041 0.022296-0.0081758h0.24146c0.009698-2.726e-4 0.019303 0.0019788 0.027903 0.0065403 0.005887 0.0059855 0.009981 0.013545 0.011805 0.021801z" fill="#1D4354" fillRule="nonzero"/>
</g>
</svg>
