<?xml version="1.0" encoding="UTF-8"?>
<svg viewBox="0 0 146 55" xmlns="http://www.w3.org/2000/svg">
<style type="text/css">.st0{fill-rule:evenodd;clip-rule:evenodd;fill:none;}
		.st1{fill:#737373;}
		.st2{fill:#F25022;}
		.st3{fill:#7FBA00;}
		.st4{fill:#00A4EF;}
		.st5{fill:#FFB900;}</style>
<g transform="translate(-732 -73)">
<g transform="translate(732 30)">
<g transform="translate(0 43)">
<rect width="145.8" height="55" className="st0"/>
<path d="m51.5 30.3-0.9 2.4h-0.1c-0.1-0.5-0.4-1.4-0.8-2.4l-4.7-11.4h-4.6v18.2h3v-11.2-2.5c0-0.5-0.1-0.9-0.1-1.2h0.1c0.1 0.7 0.3 1.2 0.4 1.6l5.6 13.3h2.1l5.6-13.4c0.1-0.3 0.2-0.9 0.4-1.4h0.1c-0.1 1.3-0.1 2.5-0.1 3.3v11.6h3.2v-18.3h-4.4l-4.8 11.4zm12.2-6.3h3.1v13.1h-3.1v-13.1zm1.6-5.5c-0.5 0-1 0.2-1.3 0.5-0.4 0.3-0.6 0.8-0.6 1.3s0.2 0.9 0.6 1.3c0.4 0.3 0.8 0.5 1.3 0.5s1-0.2 1.3-0.5c0.4-0.3 0.6-0.8 0.6-1.3s-0.2-0.9-0.5-1.3c-0.4-0.3-0.8-0.5-1.4-0.5zm12.7 5.4c-0.6-0.1-1.2-0.2-1.8-0.2-1.4 0-2.7 0.3-3.8 0.9s-2 1.5-2.5 2.5c-0.6 1.1-0.9 2.3-0.9 3.8 0 1.3 0.3 2.4 0.8 3.4 0.6 1 1.3 1.8 2.4 2.3 1 0.5 2.2 0.8 3.5 0.8 1.5 0 2.8-0.3 3.8-0.9v-2.8l-0.1 0.1c-0.5 0.3-1 0.6-1.5 0.8-0.6 0.2-1.1 0.3-1.5 0.3-1.3 0-2.2-0.4-2.9-1.1-0.7-0.8-1.1-1.8-1.1-3.1s0.4-2.4 1.1-3.2 1.7-1.2 2.9-1.2c1 0 2.1 0.3 3 1l0.1 0.1v-3c-0.4-0.2-0.9-0.4-1.5-0.5zm10.4-0.1c-0.8 0-1.5 0.2-2.1 0.7-0.5 0.4-0.9 1-1.2 1.8v-2.3h-3.1v13.1h3v-6.7c0-1.1 0.2-2.1 0.8-2.8 0.5-0.7 1.2-1.1 2-1.1 0.3 0 0.6 0.1 0.9 0.1 0.3 0.1 0.6 0.2 0.7 0.3l0.1 0.1v-3h-0.1c-0.1-0.1-0.5-0.2-1-0.2zm8.5-0.1c-2.2 0-4 0.6-5.2 1.9-1.3 1.3-1.9 3-1.9 5.1 0 2 0.6 3.7 1.8 4.9s2.9 1.8 4.9 1.8c2.2 0 3.9-0.6 5.1-1.9 1.3-1.3 1.9-3 1.9-5.1s-0.6-3.7-1.8-4.9c-1-1.2-2.7-1.8-4.8-1.8zm2.5 10.1c-0.6 0.7-1.5 1.1-2.6 1.1s-2.1-0.4-2.7-1.1c-0.7-0.7-1-1.8-1-3.1 0-1.4 0.3-2.5 1-3.2 0.7-0.8 1.5-1.1 2.7-1.1 1.1 0 2 0.4 2.6 1.1s1 1.8 1 3.2c-0.1 1.2-0.3 2.3-1 3.1zm11.2-4.4c-1-0.4-1.6-0.7-1.9-1-0.2-0.2-0.4-0.6-0.4-1s0.1-0.7 0.5-0.9 0.8-0.4 1.4-0.4c0.5 0 1.1 0.1 1.6 0.2s1 0.4 1.4 0.6l0.1 0.1v-2.9h-0.1c-0.4-0.1-0.8-0.3-1.4-0.4s-1.1-0.1-1.5-0.1c-1.5 0-2.7 0.4-3.7 1.1s-1.4 1.7-1.4 2.9c0 0.6 0.1 1.2 0.3 1.6s0.5 0.9 1 1.2c0.4 0.3 1.1 0.7 1.9 1.1 0.7 0.3 1.3 0.5 1.6 0.7s0.6 0.4 0.7 0.6 0.2 0.4 0.2 0.7c0 0.9-0.7 1.3-2.1 1.3-0.5 0-1.1-0.1-1.7-0.3-0.7-0.2-1.3-0.5-1.8-0.9l-0.1-0.1v3h0.1c0.5 0.2 1 0.4 1.7 0.5s1.3 0.2 1.8 0.2c1.6 0 2.9-0.4 3.9-1.1 1-0.8 1.5-1.7 1.5-3 0-0.9-0.2-1.7-0.8-2.2-0.7-0.4-1.6-1-2.8-1.5zm11.9-5.7c-2.2 0-4 0.6-5.2 1.9s-1.9 3-1.9 5.1c0 2 0.6 3.7 1.8 4.9s2.9 1.8 4.9 1.8c2.2 0 3.9-0.6 5.1-1.9 1.3-1.3 1.9-3 1.9-5.1s-0.6-3.7-1.8-4.9c-1.1-1.2-2.7-1.8-4.8-1.8zm2.5 10.1c-0.6 0.7-1.5 1.1-2.6 1.1-1.2 0-2.1-0.4-2.7-1.1-0.7-0.7-1-1.8-1-3.1 0-1.4 0.3-2.5 1-3.2 0.7-0.8 1.5-1.1 2.7-1.1 1.1 0 2 0.4 2.6 1.1s1 1.8 1 3.2c-0.1 1.2-0.4 2.3-1 3.1zm20.9-7.3v-2.5h-3.2v-3.9h-0.1l-3 0.9h-0.1v3h-4.7v-1.7c0-0.8 0.2-1.3 0.5-1.7s0.8-0.6 1.5-0.6c0.4 0 0.9 0.1 1.4 0.3l0.1 0.1v-2.7h-0.1c-0.4-0.1-1-0.2-1.8-0.2-0.9 0-1.8 0.2-2.5 0.6s-1.3 0.9-1.7 1.7c-0.4 0.7-0.6 1.5-0.6 2.4v1.8h-2.2v2.5h2.2v10.6h3.2v-10.6h4.7v6.7c0 2.8 1.3 4.2 4 4.2 0.4 0 0.9-0.1 1.3-0.1 0.5-0.1 0.8-0.2 1-0.3v-2.5l-0.1 0.1c-0.2 0.1-0.4 0.2-0.7 0.3-0.2 0.1-0.5 0.1-0.6 0.1-0.6 0-1.1-0.1-1.4-0.5-0.3-0.3-0.4-0.9-0.4-1.7v-6.2h3.3v-0.1z" fill="#1D4354" className="st1"/>
<polygon points="0 12.8 14.8 12.8 14.8 27.2 0 27.2" fill="#1D4354" className="st2"/>
<polygon points="16.4 12.8 31.2 12.8 31.2 27.2 16.4 27.2" fill="#1D4354" className="st3"/>
<polygon points="0 28.7 14.8 28.7 14.8 43.2 0 43.2" fill="#1D4354" className="st4"/>
<polygon points="16.4 28.7 31.2 28.7 31.2 43.2 16.4 43.2" fill="#1D4354" className="st5"/>
</g>
</g>
</g>
</svg>
